<svg xmlns="http://www.w3.org/2000/svg" viewBox="0 0 50 31.24"><defs><style>.a{fill:#231f20;}</style></defs><title>Asset 2</title><path class="a" d="M10.73,20.9a25.05,25.05,0,0,0-1.16-3.14H4.81A47.08,47.08,0,0,1,7.06,23a11.69,11.69,0,0,1,.65,3.7A4.37,4.37,0,0,1,7,29.46a2.09,2.09,0,0,1-1.68.91,1.94,1.94,0,0,1-1.47-.69A10.58,10.58,0,0,1,1.76,25a24.71,24.71,0,0,1-.8-5.8v-.88A.64.64,0,0,0,.82,18a.23.23,0,0,0-.19-.12.16.16,0,0,0-.11.05A.18.18,0,0,0,.47,18V30.79a.55.55,0,0,0,0,.26.12.12,0,0,0,.1.06q.16,0,.89-.72a11,11,0,0,1,1.42-1.21,3.91,3.91,0,0,0,3.45,2.06,4.5,4.5,0,0,0,3.49-1.71,6.94,6.94,0,0,0,1.49-4.72A14.76,14.76,0,0,0,10.73,20.9Zm-1.6-4.12H4.33l.27.56H9.38ZM6.85,12.12H2l.26.56H7.12ZM10.34,0a.12.12,0,0,0-.08,0q-.1,0-.43.28a11.44,11.44,0,0,1-2,1.36A3.51,3.51,0,0,0,5.07,0,4.14,4.14,0,0,0,1.84,1.69,7.08,7.08,0,0,0,.43,6.38a10.38,10.38,0,0,0,.5,3.11,20.27,20.27,0,0,0,.89,2.22H6.64l-.16-.32q-2.76-5.53-2.77-8a3.14,3.14,0,0,1,.57-2A1.69,1.69,0,0,1,5.63.71,2.29,2.29,0,0,1,7.48,1.86q1.38,2.06,2.21,8.4a13.78,13.78,0,0,0,.23,1.44v0a.2.2,0,0,0,.18.1.19.19,0,0,0,.16-.08l0,0a.65.65,0,0,0,.07-.32V.33A.7.7,0,0,0,10.34,0Z"/><path class="a" d="M23.8,18.51l-.15-.06-.15.06a.83.83,0,0,0-.08.37q0,.79-.46,3.63a23.78,23.78,0,0,1-1.41,5.24,5.06,5.06,0,0,1-1.36,2.15,2.64,2.64,0,0,1-1.62.52h-.86V17.76H13.55V30.45H12.26a.25.25,0,0,0-.18.07.24.24,0,0,0-.07.18.24.24,0,0,0,.07.18.24.24,0,0,0,.17.07H23.71l.17-12.25A.26.26,0,0,0,23.8,18.51ZM13.55,16.78v.56h4.17v-.56ZM19.22.4A.24.24,0,0,0,19,.33H12.23Q12,.47,12,.59c0,.07.08.15.23.24h1.31V11.7h4.17V.83h1.34a.24.24,0,0,0,.17-.07.26.26,0,0,0,.07-.19A.23.23,0,0,0,19.22.4ZM13.55,12.12v.56h4.17v-.56Z"/><path class="a" d="M25.22,16.78v.56h4.33v-.56Zm7,1V28.63a2.64,2.64,0,0,1-.46,1.64,1.13,1.13,0,0,1-.93.43,1.21,1.21,0,0,1-.91-.38,1.42,1.42,0,0,1-.36-1V17.76H25.22V19.7a20.62,20.62,0,0,0,1.42,8.43q1.42,3.11,4.18,3.11a2.83,2.83,0,0,0,1.76-.58,9.56,9.56,0,0,0,1.94-2.59l1.16,2.86a.72.72,0,0,0,.15.24.23.23,0,0,0,.15.06.14.14,0,0,0,.12-.06.41.41,0,0,0,.06-.24V17.76Zm5-.9a.2.2,0,0,0-.16-.07H31.17a.23.23,0,0,0-.17.08.29.29,0,0,0-.07.21.26.26,0,0,0,.07.18.22.22,0,0,0,.17.08h5v-.06h.9a.2.2,0,0,0,.16-.07A.25.25,0,0,0,37.3,17,.28.28,0,0,0,37.24,16.86ZM35.38.21a.14.14,0,0,0-.1,0c-.11,0-.22.08-.32.24L33.62,2.26Q32.46,0,30.7,0q-2.43,0-4,3.35a20.93,20.93,0,0,0-1.52,8.35h4.33V3A3.26,3.26,0,0,1,30,1.07a1.2,1.2,0,0,1,1-.53,2.22,2.22,0,0,1,1.85,1.29q1.37,2.31,2.05,9.71v.16h.57V.35A.2.2,0,0,0,35.38.21Zm-.49,11.91a2.56,2.56,0,0,0,.07.51.13.13,0,0,0,.05.05.35.35,0,0,0,.27,0l.05,0a.2.2,0,0,0,.08-.16v-.36Zm-9.68,0v.56h4.33v-.56Z"/><path class="a" d="M47.88,12.12v.56h.54v-.56ZM49.95.41a.16.16,0,0,0-.13-.07H46.22q-.2,0-.25.06a.35.35,0,0,0-.05.22c0,.12,0,.19.1.22l.87.08a1.29,1.29,0,0,1,.75.57,2.76,2.76,0,0,1,.24,1.34V11.7h.54V3a3.45,3.45,0,0,1,.3-1.47,1.7,1.7,0,0,1,.87-.64,1.47,1.47,0,0,0,.36-.18A.22.22,0,0,0,50,.58.3.3,0,0,0,49.95.41ZM47.88,17.76V22.7L47,17.76H42.88l2.35,13.19h3.19V17.76Zm0-1v.56h.54v-.56Zm-1.05,0H42.7l.1.56h4.12ZM46,12.12H41.87l.1.56h4.12ZM43.89.33H38.58a.24.24,0,0,0-.17.07.23.23,0,0,0-.07.17.26.26,0,0,0,.07.19.24.24,0,0,0,.17.07h1.13V11.7h.54V3L41.8,11.7h4.12ZM39.71,12.12v.56h.54v-.56Zm2.4,18.33-.91-.08a1.2,1.2,0,0,1-.73-.58,3.37,3.37,0,0,1-.22-1.46V17.76h-.54V28.31a3.72,3.72,0,0,1-.29,1.51,1.64,1.64,0,0,1-.85.63,1.52,1.52,0,0,0-.35.16.18.18,0,0,0-.05.14.21.21,0,0,0,.05.15.17.17,0,0,0,.13.06h3.56a.4.4,0,0,0,.25,0,.31.31,0,0,0,0-.21A.26.26,0,0,0,42.11,30.45Zm-2.4-13.67v.56h.54v-.56Z"/><rect class="a" y="16.78" width="48.76" height="0.56" rx="0.28" ry="0.28"/><rect class="a" y="12.12" width="48.76" height="0.56" rx="0.28" ry="0.28"/></svg>