<svg xmlns="http://www.w3.org/2000/svg" viewBox="0 0 50 30"><defs><style>.a,.b{fill:#231f20;}.b{font-size:100px;stroke:#231f20;stroke-miterlimit:10;stroke-width:2px;font-family:Onyx, Onyx;letter-spacing:0.84em;}.c{letter-spacing:0.82em;}</style></defs><title>Asset 1</title><path class="a" d="M257.57,501.75q-8.7-31.19-27.92-75.42H115.37q39.59,82,54.15,126.28,15.69,46.92,15.69,88.92,0,44-17.19,65.74T127.77,729q-20.13,0-35.34-16.61Q61.5,679.15,42.35,601T23.21,461.72v-21a15.3,15.3,0,0,0-3.5-9.76q-2-2.94-4.5-2.94a3.87,3.87,0,0,0-2.75,1.22,4.2,4.2,0,0,0-1.25,3.17v306.8c0,3.25.31,5.36,1,6.34A2.91,2.91,0,0,0,14.63,747q3.92,0,21.3-17.33A262.78,262.78,0,0,1,70,700.61Q100.82,750,152.73,750q48,0,83.73-41t35.75-113.28Q272.21,554.23,257.57,501.75Zm-38.42-98.83H103.93q3.36,6.83,6.58,13.41H225.23Q222.31,409.76,219.15,402.92Zm-54.82-112H48.22q3,6.48,6.35,13.41H171ZM248.23,1a2.84,2.84,0,0,0-2-1Q243.84,0,236,6.84A274.6,274.6,0,0,1,188.6,39.59Q158.8,0,121.65,0,78.15,0,44.18,40.59t-34,112.47q0,36.19,12,74.56,6.28,20.11,21.4,53.3H159.38l-3.79-7.65Q89.22,140.52,89.21,82.41q0-32.21,13.66-48.82T135.07,17q24.87,0,44.39,27.59Q212.63,94,232.63,246.3q4,30,5.58,34.62a3.94,3.94,0,0,0,.27.64,4.78,4.78,0,0,0,4.39,2.44,4.62,4.62,0,0,0,3.9-1.95,10.11,10.11,0,0,0,.7-1.13,15.51,15.51,0,0,0,1.74-7.67V7.83Q249.21,3,248.23,1Z"/><path class="a" d="M571.38,444.47,567.7,443,564,444.47c-.92,1.31-1.53,4.23-1.83,8.78q-.51,19-11.09,87.12T517.36,666.06q-15.78,39-32.53,51.5T445.91,730H425.2V426.33h-100V731h-31a6.06,6.06,0,0,0-4.25,1.62A5.67,5.67,0,0,0,288.2,737a5.74,5.74,0,0,0,1.72,4.39,5.83,5.83,0,0,0,4.17,1.61H569.2l4-294.14A6.3,6.3,0,0,0,571.38,444.47ZM325.2,402.92v13.41h100V402.92ZM461.49,9.69A5.77,5.77,0,0,0,457.3,8H293.61q-5.41,3.38-5.41,6.23c0,1.61,1.86,3.54,5.58,5.77H325.2V280.92h100V20h32.16a5.67,5.67,0,0,0,4.14-1.67,6.15,6.15,0,0,0,1.7-4.56A5.51,5.51,0,0,0,461.49,9.69ZM325.2,290.92v13.41h100V290.92Z"/><path class="a" d="M605.4,402.92v13.41h104V402.92Zm168,23.41V687.39q0,24.82-11.15,39.39Q754,737,740,737a29.08,29.08,0,0,1-21.83-9.05q-8.71-9-8.72-24.68V426.33h-104V473q0,127.52,34.13,202.28T740,750q23.88,0,42.17-13.88t46.58-62.07l27.92,68.65c1.3,2.91,2.52,4.86,3.68,5.85A5.64,5.64,0,0,0,864,750a3.32,3.32,0,0,0,2.93-1.47,9.79,9.79,0,0,0,1.47-5.86V426.33Zm120.53-21.64A4.84,4.84,0,0,0,890,403H748.25a5.41,5.41,0,0,0-4.14,1.83,6.94,6.94,0,0,0-1.71,4.94,6.31,6.31,0,0,0,1.69,4.42,5.39,5.39,0,0,0,4.13,1.81H773.4v.33h95V415h21.71a4.82,4.82,0,0,0,3.84-1.67,6.07,6.07,0,0,0,1.45-4.1A6.72,6.72,0,0,0,893.93,404.69ZM849.42,5A3.3,3.3,0,0,0,847,4c-2.61,0-5.21,1.92-7.8,5.73L807.06,54.16Q779.28,0,736.92,0q-58.45,0-95,80.37-35.07,77.2-36.47,200.55H709.4V71.17q0-32.74,9.66-45.45T742.75,13q25.59,0,44.47,30.86,32.85,55.38,49.28,233.22c.1,1.33.21,2.61.31,3.84H850.4V8.39A4.73,4.73,0,0,0,849.42,5ZM837.68,290.92q1.06,11.16,1.72,12.13a3,3,0,0,0,1.31,1.28,8.45,8.45,0,0,0,6.6,0,6.52,6.52,0,0,0,1.25-.78,4.75,4.75,0,0,0,1.84-3.91v-8.72Zm-232.28,0v13.41h104V290.92Z"/><path class="a" d="M1149.34,290.92v13.41h13V290.92ZM1199.13,9.75A3.75,3.75,0,0,0,1196,8h-86.29q-4.87,0-6.1,1.44c-.81,1-1.22,2.72-1.22,5.28,0,2.89.8,4.65,2.43,5.28l20.82,1.95q12.12,3.92,17.94,13.67t5.81,32.22V280.92h13V72.77q1.46-25.87,7.32-35.4T1190.59,22q7.32-3,8.54-4.25a5.17,5.17,0,0,0,1.21-3.75A7.29,7.29,0,0,0,1199.13,9.75Zm-49.79,416.58V544.91l-21.13-118.58h-98.87L1085.8,743h76.54V426.33Zm0-23.41v13.41h13V402.92Zm-25.3,0h-98.88l2.4,13.41h98.87Zm-20-112h-98.89l2.4,13.41h98.88ZM1053.66,8H926.25a5.71,5.71,0,0,0-4.19,1.69,5.48,5.48,0,0,0-1.72,4.08A6.18,6.18,0,0,0,922,18.33,5.67,5.67,0,0,0,926.17,20h27.17V280.92h13V73l37.07,207.92h98.89ZM953.34,290.92v13.41h13V290.92ZM1010.92,731l-21.81-1.95q-12.12-3.92-17.44-13.94t-5.33-35V426.33h-13V679.58q-1.44,27-7,36.25T926,731c-4.81,1.78-7.61,3.05-8.4,3.78a4.32,4.32,0,0,0-1.21,3.33,5.09,5.09,0,0,0,1.21,3.56,4,4,0,0,0,3.14,1.33h85.42c3.22,0,5.22-.39,6-1.2s1.2-2.47,1.2-5Q1013.34,732.45,1010.92,731ZM953.34,402.92v13.41h13V402.92Z"/><rect class="a" y="402.92" width="1170.57" height="13.42" rx="4.9" ry="4.9"/><rect class="a" y="290.92" width="1170.57" height="13.42" rx="4.9" ry="4.9"/><text class="b" transform="translate(3.91 390.6)">ASPIR<tspan class="c" x="569.22" y="0">A</tspan><tspan x="681.73" y="0">TIONS</tspan></text></svg>
